<svg width="512" height="512" xmlns="http://www.w3.org/2000/svg" xmlns:svg="http://www.w3.org/2000/svg">
 <g>
  <title>Layer 1</title>
  <path fill="#fff" id="svg_1" d="m480,112l-64,0l0,-32c0,-17.656 -14.313,-32 -32,-32l-352,0c-17.687,0 -32,14.344 -32,32l0,256c0,17.688 14.313,32 32,32l144,0l-32,64l128,0l-32,-64l112,0l0,64c0,17.688 14.313,32 32,32l96,0c17.688,0 32,-14.313 32,-32l0,-288c0,-17.656 -14.312,-32 -32,-32zm-448,192l0,-224l352,0l0,32c-17.688,0 -32,14.344 -32,32l0,160l-320,0zm400,128c-8.844,0 -16,-7.156 -16,-16s7.156,-16 16,-16s16,7.156 16,16s-7.156,16 -16,16zm0,-64c-8.844,0 -16,-7.156 -16,-16s7.156,-16 16,-16s16,7.156 16,16s-7.156,16 -16,16zm48,-128l-64,0l-32,0l0,-32l96,0l0,32zm0,-64l-96,0l0,-32l96,0l0,32z"/>
 </g>
</svg>