<?xml version="1.0" standalone="no"?>
<!DOCTYPE svg PUBLIC "-//W3C//DTD SVG 20010904//EN"
 "http://www.w3.org/TR/2001/REC-SVG-20010904/DTD/svg10.dtd">
<svg version="1.0" xmlns="http://www.w3.org/2000/svg"
 width="225.000000pt" height="225.000000pt" viewBox="0 0 225.000000 225.000000"
 preserveAspectRatio="xMidYMid meet">
<metadata>
Created by potrace 1.15, written by Peter Selinger 2001-2017
</metadata>
<g transform="translate(0.000000,225.000000) scale(0.100000,-0.100000)"
fill="#fff" stroke="none">
<path d="M151 2114 c-19 -14 -22 -23 -18 -50 10 -58 118 -385 127 -382 4 2 32
34 62 72 71 92 98 112 129 95 62 -32 65 -84 9 -154 l-39 -50 332 -5 c369 -6
372 -6 402 -73 8 -18 74 -220 146 -449 l132 -417 -46 -50 c-26 -28 -47 -56
-47 -64 0 -24 32 -44 146 -91 134 -55 174 -62 236 -43 l46 15 54 -72 c68 -89
176 -180 279 -235 85 -46 108 -47 135 -6 24 37 10 57 -63 95 -37 19 -99 60
-138 90 -72 58 -168 170 -150 177 38 15 80 41 89 55 8 13 -27 131 -148 513
-99 313 -155 503 -151 516 9 28 45 39 130 39 72 0 105 13 105 41 0 22 -120
392 -132 406 -27 33 -67 43 -168 43 -55 0 -100 -4 -100 -8 0 -5 18 -59 40
-121 22 -61 40 -122 40 -134 0 -43 -15 -47 -181 -47 -154 0 -158 1 -188 25
-17 15 -38 49 -49 78 -10 29 -31 87 -46 130 l-28 77 -462 0 c-411 0 -464 -2
-485 -16z"/>
<path d="M1186 2028 c3 -13 14 -43 24 -68 l18 -45 150 -3 150 -3 -26 71 -27
70 -148 0 -148 0 7 -22z"/>
<path d="M42 1918 c-23 -41 -42 -80 -42 -86 0 -12 33 -36 111 -80 l56 -32 -39
128 c-21 70 -40 131 -41 137 -2 5 -22 -25 -45 -67z"/>
<path d="M250 1606 c-102 -136 -160 -221 -158 -233 2 -12 12 -18 32 -18 27 0
46 21 188 209 87 114 158 212 158 216 0 13 -30 40 -45 40 -7 0 -86 -96 -175
-214z"/>
<path d="M1087 1394 c-30 -46 -87 -90 -146 -114 l-34 -14 43 -38 c51 -46 164
-103 220 -113 23 -4 43 -5 45 -3 2 2 -19 76 -48 165 l-52 161 -28 -44z"/>
</g>
</svg>
