<svg width="543.232" height="543.232" xmlns="http://www.w3.org/2000/svg" xmlns:svg="http://www.w3.org/2000/svg">
 <g>
  <title>Layer 1</title>
  <g id="svg_1">
   <g id="svg_2">
    <path fill="#fff" id="svg_3" d="m86.72183,416.82191c5.838,9.139 15.716,14.133 25.814,14.133c5.637,0 11.347,-1.555 16.444,-4.816c14.241,-9.102 18.409,-28.023 9.309,-42.26l-70.624,-110.551l70.631,-110.54c9.1,-14.241 4.933,-33.158 -9.309,-42.258c-14.248,-9.095 -33.158,-4.933 -42.259,9.309l-81.163,127.014c-6.42,10.043 -6.42,22.907 0,32.95l81.157,127.019z"/>
    <path fill="#fff" id="svg_4" d="m415.002,425.756c5.104,3.264 10.808,4.816 16.444,4.816c10.092,0 19.976,-4.986 25.813,-14.131l81.158,-127.014c6.42,-10.043 6.42,-22.907 0,-32.95l-81.151,-127.014c-9.095,-14.248 -28.03,-18.416 -42.259,-9.309c-14.241,9.1 -18.409,28.023 -9.309,42.258l70.631,110.54l-70.637,110.545c-9.099,14.235 -4.931,33.159 9.31,42.259z"/>
    <path fill="#fff" id="svg_5" d="m165.667,492.6c4.272,2.043 8.776,3.018 13.213,3.018c11.401,0 22.35,-6.402 27.613,-17.375l185.486,-386.791c7.307,-15.239 0.881,-33.519 -14.357,-40.82c-15.245,-7.307 -33.52,-0.881 -40.821,14.357l-185.492,386.79c-7.307,15.239 -0.881,33.52 14.358,40.821z"/>
   </g>
  </g>
  <g id="svg_6"/>
  <g id="svg_7"/>
  <g id="svg_8"/>
  <g id="svg_9"/>
  <g id="svg_10"/>
  <g id="svg_11"/>
  <g id="svg_12"/>
  <g id="svg_13"/>
  <g id="svg_14"/>
  <g id="svg_15"/>
  <g id="svg_16"/>
  <g id="svg_17"/>
  <g id="svg_18"/>
  <g id="svg_19"/>
  <g id="svg_20"/>
 </g>
</svg>
