<?xml version="1.0" standalone="no"?>
<!DOCTYPE svg PUBLIC "-//W3C//DTD SVG 20010904//EN"
 "http://www.w3.org/TR/2001/REC-SVG-20010904/DTD/svg10.dtd">
<svg version="1.0" xmlns="http://www.w3.org/2000/svg"
 width="980.000000pt" height="982.000000pt" viewBox="0 0 980.000000 982.000000"
 preserveAspectRatio="xMidYMid meet">
<metadata>
Created by potrace 1.15, written by Peter Selinger 2001-2017
</metadata>
<g transform="translate(0.000000,982.000000) scale(0.100000,-0.100000)"
fill="#fff" stroke="none">
<path d="M2465 9794 c-41 -21 -64 -43 -83 -79 -18 -36 -30 -329 -31 -777 l-1
-288 188 0 189 0 6 152 c15 340 0 837 -26 901 -35 82 -165 131 -242 91z"/>
<path d="M3650 9799 c-33 -13 -78 -57 -97 -94 -20 -37 -32 -305 -32 -747 l-1
-308 202 0 201 0 -6 528 -6 527 -44 41 c-64 58 -151 79 -217 53z"/>
<path d="M4825 9794 c-40 -20 -73 -52 -93 -89 -15 -27 -17 -88 -20 -542 l-3
-513 190 0 191 0 0 518 0 518 -47 46 c-76 74 -153 96 -218 62z"/>
<path d="M6014 9800 c-47 -15 -100 -74 -114 -128 -9 -32 -15 -198 -19 -535
l-6 -487 204 0 203 0 -5 473 c-6 475 -11 552 -45 609 -32 54 -146 90 -218 68z"/>
<path d="M7175 9791 c-43 -26 -82 -75 -95 -119 -6 -23 -10 -222 -10 -529 l0
-493 191 0 191 0 -7 528 -7 527 -26 28 c-37 39 -119 77 -166 77 -23 0 -55 -8
-71 -19z"/>
<path d="M1797 8404 c-107 -46 -174 -93 -250 -174 -76 -80 -104 -126 -146
-235 l-31 -80 0 -3005 0 -3005 29 -77 c42 -114 75 -164 165 -254 90 -90 140
-123 254 -165 l77 -29 3002 0 3002 0 85 31 c191 69 345 224 416 417 l30 83 0
2999 0 2999 -30 82 c-73 197 -223 348 -418 419 l-83 30 -3012 -1 -3012 -1 -78
-34z m6058 -373 c39 -11 63 -27 112 -76 l63 -63 0 -2980 0 -2980 -45 -50 c-76
-85 -94 -92 -257 -102 -178 -12 -5471 -12 -5659 -1 -164 10 -196 25 -276 124
l-33 42 0 2964 0 2964 26 34 c79 103 120 124 267 133 67 4 1389 7 2937 6 2291
-2 2824 -5 2865 -15z"/>
<path d="M3505 6471 c-496 -7 -461 -1 -529 -88 l-36 -46 0 -1430 0 -1429 56
-64 56 -64 1848 0 1847 0 52 59 51 59 0 1444 -1 1443 -52 57 -52 56 -1400 5
c-770 2 -1598 1 -1840 -2z m2965 -1561 l0 -1170 -1570 0 -1570 0 0 1170 0
1170 1570 0 1570 0 0 -1170z"/>
<path d="M253 7451 c-123 -5 -145 -9 -170 -27 -65 -48 -97 -139 -74 -214 7
-23 30 -55 61 -84 l49 -46 521 0 520 0 0 190 0 190 -382 -2 c-211 -1 -447 -4
-525 -7z"/>
<path d="M8640 7273 l0 -190 107 -6 c148 -10 567 -8 753 2 180 10 216 21 259
81 58 81 48 166 -30 252 l-34 37 -527 7 -528 7 0 -190z"/>
<path d="M279 6280 c-128 -6 -151 -9 -190 -31 -64 -35 -81 -74 -77 -176 3 -75
5 -84 33 -113 58 -61 78 -63 623 -68 l492 -4 0 201 0 201 -367 -2 c-203 -1
-434 -4 -514 -8z"/>
<path d="M8640 6089 l0 -202 525 5 526 5 35 34 c62 60 79 113 64 205 -23 139
-94 154 -747 154 l-403 0 0 -201z"/>
<path d="M73 5052 c-57 -51 -73 -82 -73 -143 0 -59 22 -100 78 -147 l50 -42
516 0 516 0 0 190 0 190 -517 0 -518 0 -52 -48z"/>
<path d="M8640 4910 l0 -190 518 0 518 0 56 53 c44 43 57 62 63 95 13 79 -1
119 -64 178 l-56 54 -517 0 -518 0 0 -190z"/>
<path d="M210 3921 c-52 -3 -105 -12 -116 -18 -64 -36 -101 -123 -89 -207 12
-92 43 -123 152 -147 29 -7 237 -13 526 -16 l477 -5 0 201 0 201 -427 -2
c-236 -1 -471 -4 -523 -7z"/>
<path d="M8640 3728 l0 -201 474 6 c483 7 562 13 606 46 111 81 98 255 -24
318 -41 21 -264 32 -713 32 l-343 1 0 -202z"/>
<path d="M269 2740 c-172 -10 -215 -30 -254 -122 -30 -73 -9 -151 57 -215 l33
-32 527 -7 528 -7 0 190 0 190 -127 6 c-159 9 -583 6 -764 -3z"/>
<path d="M8640 2548 l0 -191 528 7 527 6 39 43 c69 75 82 137 45 214 -11 24
-40 59 -63 78 l-43 35 -517 0 -516 0 0 -192z"/>
<path d="M2353 643 l7 -527 32 -33 c40 -42 104 -73 148 -73 49 0 115 36 155
84 l35 43 0 517 0 516 -192 0 -191 0 6 -527z"/>
<path d="M3524 688 c3 -266 10 -503 15 -527 34 -170 268 -202 348 -47 20 39
31 301 32 749 l1 307 -202 0 -201 0 7 -482z"/>
<path d="M4710 651 l0 -519 53 -55 c58 -62 93 -74 174 -62 39 6 54 15 99 63
l54 56 0 518 0 518 -190 0 -190 0 0 -519z"/>
<path d="M5881 644 l4 -526 52 -48 c59 -54 95 -65 181 -54 69 8 114 47 132
113 21 79 30 265 30 654 l0 387 -201 0 -201 0 3 -526z"/>
<path d="M7067 1088 c-10 -121 -8 -629 3 -800 11 -183 30 -224 122 -263 70
-29 133 -14 200 47 l47 43 7 528 6 527 -189 0 -190 0 -6 -82z"/>
</g>
</svg>
