<?xml version="1.0" standalone="no"?>
<!DOCTYPE svg PUBLIC "-//W3C//DTD SVG 20010904//EN"
 "http://www.w3.org/TR/2001/REC-SVG-20010904/DTD/svg10.dtd">
<svg version="1.0" xmlns="http://www.w3.org/2000/svg"
 width="225.000000pt" height="225.000000pt" viewBox="0 0 225.000000 225.000000"
 preserveAspectRatio="xMidYMid meet">
<metadata>
Created by potrace 1.15, written by Peter Selinger 2001-2017
</metadata>
<g transform="translate(0.000000,225.000000) scale(0.100000,-0.100000)"
fill="#fff" stroke="none">
<path d="M327 2237 c-53 -17 -106 -63 -128 -111 -18 -39 -19 -78 -19 -746 0
-791 -3 -753 74 -817 60 -49 89 -53 398 -53 l284 0 11 -62 c16 -93 47 -165
100 -236 184 -240 521 -279 757 -87 61 50 124 138 158 223 23 57 23 61 28 592
l5 535 27 3 c48 6 49 14 46 257 l-3 227 -37 33 -38 32 0 101 c0 90 -2 102 -19
112 -27 14 -37 13 -55 -6 -12 -12 -16 -38 -16 -114 0 -94 -1 -98 -26 -115 -47
-31 -54 -66 -54 -285 0 -120 4 -209 10 -221 7 -12 21 -19 40 -19 l30 0 0 -502
c0 -303 -5 -520 -11 -547 -50 -218 -275 -370 -491 -331 -189 33 -331 178 -363
368 l-7 42 91 0 91 0 0 -42 c0 -49 36 -133 71 -165 62 -57 188 -81 263 -49 46
19 104 72 129 120 22 41 22 47 25 573 l3 533 29 0 c19 0 33 7 40 19 11 22 14
377 4 431 -4 18 -22 47 -40 66 -34 33 -34 34 -34 127 0 78 -3 97 -18 110 -10
10 -25 17 -33 17 -31 0 -39 -23 -39 -121 l0 -97 -40 -40 -40 -40 0 -225 c0
-239 0 -242 50 -249 l25 -3 3 -505 2 -505 -22 -45 c-29 -57 -78 -90 -132 -90
-87 0 -156 65 -156 145 0 37 3 44 25 49 37 9 96 65 116 111 17 37 19 84 19
745 0 661 -2 708 -19 745 -23 51 -79 101 -128 114 -55 16 -936 13 -986 -2z
m990 -103 c15 -11 34 -32 40 -45 10 -18 13 -185 13 -709 0 -524 -3 -691 -13
-709 -6 -13 -25 -34 -40 -45 -28 -20 -39 -21 -482 -24 -503 -3 -507 -3 -545
60 -19 32 -20 49 -20 718 0 669 1 686 20 718 38 62 37 62 542 59 446 -2 457
-2 485 -23z m347 -200 c14 -5 16 -31 16 -185 l0 -179 -30 0 -30 0 0 173 c0
121 4 177 12 185 14 14 12 14 32 6z m304 -6 c8 -8 12 -64 12 -185 l0 -173 -35
0 -35 0 0 166 c0 95 4 174 10 185 12 22 30 25 48 7z"/>
<path d="M392 2018 c-17 -17 -17 -319 0 -336 9 -9 118 -12 429 -12 l418 0 15
22 c13 18 16 52 16 164 0 124 -2 143 -18 157 -17 15 -61 17 -433 17 -310 0
-418 -3 -427 -12z m780 -168 l0 -85 -351 -3 -351 -2 0 90 0 90 351 -2 351 -3
0 -85z"/>
<path d="M731 1554 c-69 -19 -107 -42 -163 -102 -65 -69 -91 -144 -86 -247 7
-133 78 -238 197 -293 46 -22 71 -27 141 -27 77 0 92 3 152 33 73 36 124 87
160 161 19 39 23 62 23 146 0 105 -11 140 -68 217 -33 44 -116 96 -182 113
-72 18 -103 18 -174 -1z m194 -103 c51 -22 103 -74 126 -126 25 -53 24 -147 0
-201 l-19 -42 -176 176 c-97 97 -176 177 -176 178 0 3 82 32 105 38 31 7 96
-4 140 -23z m34 -432 c4 -16 -88 -44 -144 -43 -174 1 -296 187 -224 343 l20
45 173 -170 c95 -93 174 -172 175 -175z"/>
<path d="M1196 815 c-9 -9 -16 -22 -16 -30 0 -7 -11 -16 -24 -19 -13 -3 -26
-15 -29 -25 -6 -23 18 -61 39 -61 8 0 14 -6 14 -13 0 -21 36 -49 57 -45 9 2
23 14 29 27 7 13 22 28 35 35 17 8 24 20 24 41 0 21 -7 33 -24 41 -13 7 -28
22 -35 35 -14 29 -48 36 -70 14z"/>
<path d="M900 751 c-27 -51 1 -71 99 -71 81 0 101 9 101 45 0 37 -20 45 -107
45 -71 0 -84 -3 -93 -19z"/>
</g>
</svg>
