<?xml version="1.0" standalone="no"?>
<!DOCTYPE svg PUBLIC "-//W3C//DTD SVG 20010904//EN"
 "http://www.w3.org/TR/2001/REC-SVG-20010904/DTD/svg10.dtd">
<svg version="1.0" xmlns="http://www.w3.org/2000/svg"
 width="225.000000pt" height="225.000000pt" viewBox="0 0 225.000000 225.000000"
 preserveAspectRatio="xMidYMid meet">
<metadata>
Created by potrace 1.15, written by Peter Selinger 2001-2017
</metadata>
<g transform="translate(0.000000,225.000000) scale(0.100000,-0.100000)"
fill="#fff" stroke="none">
<path d="M312 2240 c-23 -5 -69 -23 -102 -41 -151 -80 -234 -257 -200 -424 31
-149 121 -250 269 -301 l66 -23 -172 0 -173 -1 0 -596 0 -595 135 3 135 3 16
-48 c25 -76 83 -140 161 -179 60 -29 77 -33 148 -33 67 0 89 5 135 27 30 15
70 43 89 62 l33 34 53 -43 c73 -59 133 -80 225 -80 88 1 162 30 224 88 l39 37
44 -41 c68 -62 123 -83 218 -83 87 0 143 18 209 69 39 30 88 102 105 155 l11
35 135 -3 135 -3 0 595 0 596 -172 1 -173 0 69 24 c182 63 297 244 269 425
-23 144 -95 245 -220 307 -71 35 -82 38 -167 37 -81 0 -98 -3 -156 -30 -161
-75 -248 -218 -237 -386 11 -171 109 -296 276 -354 l66 -23 -237 0 -238 -1 0
135 0 135 -65 0 -65 0 0 -330 0 -330 65 0 65 0 0 130 0 130 395 0 395 0 0
-465 0 -465 -130 0 -130 0 0 -33 c0 -98 -61 -189 -145 -217 -108 -36 -233 40
-251 153 l-7 37 -62 0 -63 0 -11 -45 c-21 -85 -110 -155 -196 -155 -86 0 -174
70 -197 156 l-12 44 -63 0 c-58 0 -63 -2 -63 -22 0 -39 -42 -109 -82 -138
-137 -99 -318 7 -318 187 l0 33 -130 0 -130 0 0 465 0 465 395 0 395 0 0 -65
0 -65 65 0 65 0 0 195 0 195 -65 0 -65 0 0 -65 0 -65 -237 1 -238 0 66 23
c120 42 193 107 247 223 23 50 27 71 27 154 0 90 -2 99 -37 171 -45 89 -103
148 -191 189 -69 32 -172 44 -245 29z m148 -255 l0 -65 65 0 65 0 0 -70 0 -70
-65 0 -65 0 0 -65 0 -65 -65 0 -65 0 0 65 0 65 -65 0 -65 0 0 70 0 70 65 0 65
0 0 65 0 65 65 0 65 0 0 -65z m1590 -135 l0 -70 -195 0 -195 0 0 70 0 70 195
0 195 0 0 -70z"/>
<path d="M337 1092 l-117 -118 45 -44 45 -44 38 37 c21 20 41 37 45 37 4 0 7
-97 7 -215 l0 -215 65 0 65 0 0 217 0 217 43 -42 43 -42 44 45 44 45 -119 120
c-66 66 -122 120 -125 120 -3 0 -58 -53 -123 -118z"/>
<path d="M1720 973 l0 -217 -40 39 -40 39 -47 -46 -47 -47 119 -121 119 -120
123 122 123 123 -45 45 -45 44 -38 -37 c-21 -20 -41 -37 -45 -37 -4 0 -7 97
-7 215 l0 215 -65 0 -65 0 0 -217z"/>
</g>
</svg>
