<?xml version="1.0" standalone="no"?>
<!DOCTYPE svg PUBLIC "-//W3C//DTD SVG 20010904//EN"
 "http://www.w3.org/TR/2001/REC-SVG-20010904/DTD/svg10.dtd">
<svg version="1.0" xmlns="http://www.w3.org/2000/svg"
 width="1280.000000pt" height="1149.000000pt" viewBox="0 0 1280.000000 1149.000000"
 preserveAspectRatio="xMidYMid meet">
<g transform="translate(0.000000,1149.000000) scale(0.100000,-0.100000)"
fill="#fff" stroke="none">
<path d="M8009 11470 c-90 -46 -129 -138 -91 -221 10 -24 28 -52 38 -61 11 -9
107 -65 214 -124 930 -510 1417 -934 1912 -1664 181 -267 638 -1032 638 -1069
0 -6 -30 -30 -67 -53 -568 -355 -1243 -902 -1652 -1337 l-124 -131 -936 -634
c-3886 -2629 -6563 -4512 -7723 -5434 -87 -69 -156 -127 -154 -130 6 -5 303
157 636 346 1008 572 2662 1585 4779 2926 370 235 687 434 704 443 17 9 -34
-49 -119 -133 -119 -117 -167 -174 -227 -264 -173 -262 -286 -570 -344 -936
-21 -135 -24 -514 -5 -649 79 -553 290 -996 655 -1372 336 -347 735 -575 1367
-782 449 -147 870 -213 1126 -176 353 51 571 160 726 364 309 407 226 1094
-220 1821 -86 141 -195 292 -237 329 -89 78 -230 31 -266 -89 -18 -58 0 -106
80 -217 339 -473 525 -989 483 -1337 -34 -274 -172 -435 -439 -508 -68 -19
-105 -22 -283 -22 -223 -1 -328 13 -582 75 -259 63 -673 216 -908 335 -644
326 -1042 851 -1157 1527 -22 131 -25 529 -4 657 91 571 361 1011 722 1179
110 51 183 65 316 58 81 -3 127 -11 183 -31 139 -49 394 -179 950 -486 993
-548 1380 -704 1935 -782 139 -20 514 -16 660 6 305 47 599 142 885 289 378
194 613 447 755 817 279 720 68 1873 -606 3315 -49 104 -89 195 -89 202 0 7
26 31 58 54 236 173 595 482 767 660 239 248 359 419 416 596 21 66 21 75 8
115 -34 104 -111 143 -274 142 -247 -3 -613 -126 -1095 -368 -113 -57 -245
-126 -293 -155 -49 -28 -94 -51 -101 -51 -6 0 -63 91 -126 203 -308 545 -619
1013 -891 1342 -112 135 -438 460 -579 577 -280 232 -572 431 -946 645 -225
129 -389 213 -415 212 -13 -1 -40 -9 -60 -19z m4369 -2692 c41 -41 -16 -137
-182 -303 -151 -152 -340 -312 -610 -514 -155 -117 -191 -140 -201 -129 -7 7
-54 92 -105 188 -51 96 -97 180 -102 187 -7 8 -47 -11 -145 -70 -74 -44 -137
-86 -140 -92 -2 -7 44 -101 101 -211 58 -109 106 -204 106 -210 0 -27 -630
-423 -975 -612 -185 -101 -483 -244 -597 -286 -120 -44 -222 -63 -260 -47
-214 84 797 923 1914 1588 527 314 976 522 1129 523 30 0 60 -5 67 -12z
m-1048 -1625 c307 -667 512 -1252 609 -1738 67 -330 90 -610 72 -838 -31 -390
-134 -649 -337 -851 -96 -95 -193 -162 -357 -246 -246 -124 -484 -206 -732
-251 -162 -30 -477 -32 -640 -6 -463 76 -839 230 -1659 679 -894 490 -1073
575 -1278 608 -49 8 -128 11 -215 7 -159 -6 -244 -25 -391 -88 -53 -23 -104
-44 -112 -47 -46 -17 98 79 550 368 278 177 928 595 1444 928 l939 605 191 72
c565 214 1159 521 1706 884 58 38 112 70 121 70 12 1 38 -45 89 -156z"/>
</g>
</svg>
